<svg width="300" height="300" viewBox="0 0 300 300" fill="none" xmlns="http://www.w3.org/2000/svg">
<path d="M206.856 243C202.796 243 198.737 241.447 195.642 238.34C189.453 232.127 189.453 222.041 195.642 215.828L261.717 149.5L195.642 83.1725C189.453 76.9593 189.453 66.873 195.642 60.6599C201.832 54.4467 211.88 54.4467 218.069 60.6599L295.358 138.244C301.547 144.457 301.547 154.543 295.358 160.756L218.069 238.34C214.974 241.447 210.915 243 206.856 243Z" fill="#58A04D"/>
<path d="M93.1272 243C89.0686 243 85.01 241.447 81.9158 238.34L4.64129 160.756C1.66765 157.771 0 153.716 0 149.5C0 145.284 1.66765 141.229 4.64129 138.244L81.9158 60.6599C88.1041 54.4467 98.1502 54.4467 104.339 60.6599C110.527 66.873 110.527 76.9593 104.339 83.1725L38.2957 149.5L104.359 215.828C110.547 222.041 110.547 232.127 104.359 238.34C101.265 241.447 97.2059 243 93.1473 243H93.1272Z" fill="#58A04D"/>
</svg>
