<svg width="400" height="400" viewBox="0 0 400 400" fill="none" xmlns="http://www.w3.org/2000/svg">
<path d="M199.57 261.67L114.51 219.3V118.49L199.57 160.85V261.67Z" stroke="currentColor" stroke-width="15" stroke-linecap="round" stroke-linejoin="round"/>
<path d="M284.63 219.3L199.57 261.67V160.85L284.63 118.49V219.3Z" stroke="currentColor" stroke-width="15" stroke-linecap="round" stroke-linejoin="round"/>
<path d="M199.57 74.3L114.51 117.57L199.57 160.85L284.63 117.57L199.57 74.3Z" stroke="currentColor" stroke-width="15" stroke-linecap="round" stroke-linejoin="round"/>
<path d="M199.571 306.61C120.441 306.61 56.3008 275.89 56.3008 238C56.3008 221.19 68.9208 205.79 89.8708 193.86" stroke="currentColor" stroke-width="15" stroke-linecap="round" stroke-linejoin="round"/>
<path d="M309.381 193.92C330.261 205.84 342.841 221.21 342.841 237.99C342.841 271.54 292.571 299.46 226.131 305.43" stroke="currentColor" stroke-width="15" stroke-linecap="round" stroke-linejoin="round"/>
<path d="M174.391 286.04L199.571 306.61L172.641 325.52" stroke="currentColor" stroke-width="20" stroke-linecap="round" stroke-linejoin="round"/>
</svg>
