<svg width="13" height="12" viewBox="0 0 13 12" fill="none" xmlns="http://www.w3.org/2000/svg">
<path d="M6.44629 0.21967C6.73918 -0.0732236 7.21492 -0.0732237 7.50781 0.21967L12.2803 4.99311C12.5732 5.286 12.5732 5.76076 12.2803 6.05365L7.50781 10.8271C7.21492 11.12 6.73918 11.12 6.44629 10.8271C6.1534 10.5342 6.1534 10.0585 6.44629 9.76557L9.93945 6.27338L0.75 6.27338C0.335787 6.27338 2.96618e-07 5.93759 2.75925e-07 5.52338C2.55233e-07 5.10917 0.335787 4.77338 0.75 4.77338L9.93945 4.77338L6.44629 1.28119C6.1534 0.9883 6.1534 0.512563 6.44629 0.21967Z" fill="currentColor"/>
</svg>
