<?xml version="1.0" encoding="UTF-8"?>
<svg id="Layer_2" data-name="Layer 2" xmlns="http://www.w3.org/2000/svg" viewBox="0 0 331.66 35.84">
  <defs>
    <style>
      .cls-1 {
        fill: #eef4ed;
      }

      .cls-2 {
        fill: #37A32D;
      }
    </style>
  </defs>
  <path class="cls-2" d="M143.38,22.86c-1.4,0-2.63-1-2.89-2.42-.29-1.6.77-3.13,2.37-3.42l22.44-4.05c1.6-.29,3.13.77,3.42,2.37.29,1.6-.77,3.13-2.37,3.42l-22.44,4.05c-.18.03-.35.05-.53.05Z"/>
  <path class="cls-2" d="M313.74,35.19c-.75,0-1.51-.29-2.08-.86-1.15-1.15-1.15-3.01,0-4.16l12.25-12.25-12.25-12.25c-1.15-1.15-1.15-3.01,0-4.16,1.15-1.15,3.01-1.15,4.16,0l14.33,14.33c1.15,1.15,1.15,3.01,0,4.16l-14.33,14.33c-.57.57-1.33.86-2.08.86Z"/>
  <path class="cls-2" d="M17.92,35.19c-.75,0-1.51-.29-2.08-.86L1.51,20c-.55-.55-.86-1.3-.86-2.08s.31-1.53.86-2.08L15.84,1.51c1.15-1.15,3.01-1.15,4.16,0,1.15,1.15,1.15,3.01,0,4.16l-12.25,12.25,12.25,12.25c1.15,1.15,1.15,3.01,0,4.16-.57.57-1.33.86-2.08.86Z"/>
  <path class="cls-1" d="M30.14,33.58V2.21c0-.65.53-1.18,1.18-1.18h7.4c7.11,0,10.05,4.36,10.05,10s-2.94,10-10.05,10h-2.3c-.65,0-1.18.53-1.18,1.18v11.37c0,.65-.53,1.18-1.18,1.18h-2.74c-.65,0-1.18-.53-1.18-1.18ZM35.24,14.96c0,.65.53,1.18,1.18,1.18h2.3c4.41,0,4.9-3.68,4.9-5.1s-.49-5.1-4.9-5.1h-2.3c-.65,0-1.18.53-1.18,1.18v7.84Z"/>
  <path class="cls-1" d="M52.69,1.04h15.78c.65,0,1.18.53,1.18,1.18v2.74c0,.65-.53,1.18-1.18,1.18h-10.39c-.65,0-1.18.53-1.18,1.18v6.86c0,.65.53,1.18,1.18,1.18h8.82c.65,0,1.18.53,1.18,1.18v2.74c0,.65-.53,1.18-1.18,1.18h-8.82c-.65,0-1.18.53-1.18,1.18v6.86c0,.65.53,1.18,1.18,1.18h10.39c.65,0,1.18.53,1.18,1.18v2.74c0,.65-.53,1.18-1.18,1.18h-15.78c-.65,0-1.18-.53-1.18-1.18V2.21c0-.65.53-1.18,1.18-1.18Z"/>
  <path class="cls-1" d="M74.16,1.04h15.88c.65,0,1.18.53,1.18,1.18v2.89c0,.65-.53,1.18-1.18,1.18h-4.07c-.65,0-1.18.53-1.18,1.18v26.12c0,.65-.53,1.18-1.18,1.18h-3.04c-.65,0-1.18-.53-1.18-1.18V7.46c0-.65-.53-1.18-1.18-1.18h-4.07c-.65,0-1.18-.53-1.18-1.18v-2.89c0-.65.53-1.18,1.18-1.18Z"/>
  <path class="cls-1" d="M95.82,1.04h15.78c.65,0,1.18.53,1.18,1.18v2.74c0,.65-.53,1.18-1.18,1.18h-10.39c-.65,0-1.18.53-1.18,1.18v6.86c0,.65.53,1.18,1.18,1.18h8.82c.65,0,1.18.53,1.18,1.18v2.74c0,.65-.53,1.18-1.18,1.18h-8.82c-.65,0-1.18.53-1.18,1.18v6.86c0,.65.53,1.18,1.18,1.18h10.39c.65,0,1.18.53,1.18,1.18v2.74c0,.65-.53,1.18-1.18,1.18h-15.78c-.65,0-1.18-.53-1.18-1.18V2.21c0-.65.53-1.18,1.18-1.18Z"/>
  <path class="cls-1" d="M116.11,33.58V2.21c0-.65.53-1.18,1.18-1.18h7.21c7.11,0,10.05,4.36,10.05,10,0,3.73-1.28,6.93-4.25,8.64-.48.28-.7.86-.52,1.39l4.14,12.13c.26.76-.31,1.56-1.11,1.56h-3c-.51,0-.96-.32-1.12-.81l-4.02-12.11c-.16-.48-.61-.81-1.12-.81h-1.16c-.65,0-1.18.53-1.18,1.18v11.37c0,.65-.53,1.18-1.18,1.18h-2.74c-.65,0-1.18-.53-1.18-1.18ZM121.21,14.96c0,.65.53,1.18,1.18,1.18h2.11c4.41,0,4.9-3.68,4.9-5.1s-.49-5.1-4.9-5.1h-2.11c-.65,0-1.18.53-1.18,1.18v7.84Z"/>
  <path class="cls-1" d="M178.33,2.24c0-.65.53-1.18,1.18-1.18h7.11c6.91,0,9.8,4.46,9.8,9.51v14.75c0,6.03-3.87,9.46-9.8,9.46h-7.11c-.65,0-1.18-.53-1.18-1.18V2.24ZM183.33,28.7c0,.65.53,1.18,1.18,1.18h2.21c4.12,0,4.66-3.33,4.66-4.71v-14.46c0-1.42-.54-4.71-4.66-4.71h-2.21c-.65,0-1.18.53-1.18,1.18v21.52Z"/>
  <path class="cls-1" d="M199.94,33.43l4.83-31.38c.09-.57.58-.99,1.16-.99h6.62c.58,0,1.07.42,1.16.99l4.83,31.38c.11.71-.44,1.35-1.16,1.35h-2.77c-.58,0-1.07-.43-1.16-1l-.68-4.62c-.09-.57-.58-1-1.16-1h-4.74c-.58,0-1.07.43-1.16,1l-.68,4.62c-.09.57-.58,1-1.16,1h-2.77c-.72,0-1.27-.64-1.16-1.35ZM211.73,22.61l-1.96-13.22c-.09-.6-.96-.6-1.05,0l-1.96,13.22c-.06.39.25.75.65.75h3.68c.4,0,.7-.35.65-.75Z"/>
  <path class="cls-1" d="M221.64,1.06h2.93c.58,0,1.08.43,1.16,1l3.25,22.43c.09.61.96.61,1.05,0l3.25-22.43c.08-.58.58-1,1.16-1h2.93c.71,0,1.26.63,1.16,1.34l-4.51,31.38c-.08.58-.58,1.01-1.16,1.01h-6.69c-.58,0-1.08-.43-1.16-1.01l-4.51-31.38c-.1-.71.45-1.34,1.16-1.34Z"/>
  <path class="cls-1" d="M260.08,2.24v2.65c0,.65-.53,1.18-1.18,1.18h-3.97c-.65,0-1.18.53-1.18,1.18v21.37c0,.65.53,1.18,1.18,1.18h3.97c.65,0,1.18.53,1.18,1.18v2.65c0,.65-.53,1.18-1.18,1.18h-15.68c-.65,0-1.18-.53-1.18-1.18v-2.65c0-.65.53-1.18,1.18-1.18h3.97c.65,0,1.18-.53,1.18-1.18V7.24c0-.65-.53-1.18-1.18-1.18h-3.97c-.65,0-1.18-.53-1.18-1.18v-2.65c0-.65.53-1.18,1.18-1.18h15.68c.65,0,1.18.53,1.18,1.18Z"/>
  <path class="cls-1" d="M264.79,1.06h15.78c.65,0,1.18.53,1.18,1.18v2.74c0,.65-.53,1.18-1.18,1.18h-10.39c-.65,0-1.18.53-1.18,1.18v6.86c0,.65.53,1.18,1.18,1.18h8.82c.65,0,1.18.53,1.18,1.18v2.74c0,.65-.53,1.18-1.18,1.18h-8.82c-.65,0-1.18.53-1.18,1.18v6.86c0,.65.53,1.18,1.18,1.18h10.39c.65,0,1.18.53,1.18,1.18v2.74c0,.65-.53,1.18-1.18,1.18h-15.78c-.65,0-1.18-.53-1.18-1.18V2.24c0-.65.53-1.18,1.18-1.18Z"/>
  <path class="cls-1" d="M294.2.42c7.35,0,9.02,5.15,9.02,9.95h0c0,.65-.53,1.18-1.18,1.18h-2.6c-.65,0-1.18-.53-1.18-1.18h0c0-1.62-.15-4.95-4.07-4.95s-4.02,3.04-4.02,4.17v.2c0,2.84,1.76,4.26,4.41,5.49,5.29,2.45,8.63,4.02,8.63,10.54,0,5.44-2.35,9.61-9.02,9.61-7.35,0-9.02-5.15-9.02-9.95v-1.86c0-.65.53-1.18,1.18-1.18h2.6c.65,0,1.18.53,1.18,1.18v1.86c0,1.62.15,4.95,4.07,4.95s4.02-3.04,4.02-4.17v-.2c0-2.45-.88-3.87-4.41-5.44-5.29-2.35-8.63-4.51-8.63-10.59,0-5.59,2.74-9.61,9.02-9.61Z"/>
</svg>