<svg width="14" height="14" viewBox="0 0 14 14" fill="none" xmlns="http://www.w3.org/2000/svg">
<path d="M12.2929 0.292954C12.6834 -0.0975683 13.3164 -0.0975683 13.707 0.292954C14.0975 0.683478 14.0975 1.31649 13.707 1.70702L8.41399 6.99999L13.707 12.293C14.0975 12.6835 14.0975 13.3165 13.707 13.707C13.3164 14.0975 12.6834 14.0975 12.2929 13.707L6.99992 8.41405L1.70696 13.707C1.31643 14.0975 0.683417 14.0975 0.292893 13.707C-0.097631 13.3165 -0.0976311 12.6835 0.292893 12.293L5.58586 6.99999L0.292893 1.70702C-0.0976311 1.31649 -0.097631 0.683479 0.292893 0.292954C0.683417 -0.0975701 1.31643 -0.09757 1.70696 0.292954L6.99992 5.58592L12.2929 0.292954Z" fill="#EEF4ED"/>
</svg>
