<?xml version="1.0" encoding="UTF-8"?>
<svg id="Layer_2" xmlns="http://www.w3.org/2000/svg" version="1.1" viewBox="0 0 90.2 90.2">
  <!-- Generator: Adobe Illustrator 29.6.1, SVG Export Plug-In . SVG Version: 2.1.1 Build 9)  -->
  <defs>
    <style>
      .st0 {
        fill: #252b23;
      }

      .st1 {
        fill: #58a04d;
      }

      .st2 {
        fill: #fff;
      }
    </style>
  </defs>
  <rect class="st2" width="90.2" height="90.2"/>
  <path class="st1" d="M72.3,62.4c-.8,0-1.5-.3-2.1-.9-1.2-1.2-1.2-3,0-4.2l12.2-12.2-12.2-12.2c-1.2-1.2-1.2-3,0-4.2,1.2-1.1,3-1.1,4.2,0l14.3,14.3c1.2,1.1,1.2,3,0,4.2l-14.3,14.3c-.6.6-1.3.9-2.1.9Z"/>
  <path class="st1" d="M17.9,62.4c-.8,0-1.5-.3-2.1-.9L1.5,47.2c-.6-.5-.9-1.3-.9-2.1s.3-1.5.9-2.1l14.3-14.3c1.1-1.1,3-1.1,4.2,0,1.1,1.2,1.1,3,0,4.2l-12.2,12.3,12.2,12.2c1.1,1.1,1.1,3,0,4.2-.6.6-1.3.9-2.1.9h0Z"/>
  <path class="st0" d="M25.9,60.7v-31.4c0-.6.5-1.2,1.2-1.2h7.4c7.1,0,10,4.4,10,10s-2.9,10-10,10h-2.3c-.6,0-1.2.5-1.2,1.2v11.4c0,.7-.5,1.2-1.2,1.2h-2.7c-.6,0-1.2-.5-1.2-1.2ZM31,42.1c0,.6.5,1.2,1.2,1.2h2.3c4.4,0,4.9-3.7,4.9-5.1s-.5-5.1-4.9-5.1h-2.3c-.6,0-1.2.5-1.2,1.2v7.8Z"/>
  <path class="st0" d="M48.3,29.4c0-.6.5-1.2,1.2-1.2h7.1c6.9,0,9.8,4.5,9.8,9.5v14.7c0,6-3.9,9.5-9.8,9.5h-7.1c-.7,0-1.2-.5-1.2-1.2v-31.4ZM53.3,55.9c0,.6.5,1.2,1.2,1.2h2.2c4.1,0,4.7-3.3,4.7-4.7v-14.5c0-1.4-.5-4.7-4.7-4.7h-2.2c-.7,0-1.2.5-1.2,1.2,0,0,0,21.5,0,21.5Z"/>
</svg>