<svg width="42" height="40" viewBox="0 0 42 40" fill="none" xmlns="http://www.w3.org/2000/svg">
<path d="M15.8425 0.61084H12.1103C11.2927 0.61084 10.6299 1.26997 10.6299 2.08304V27.9249C10.6299 28.7379 11.2927 29.3971 12.1103 29.3971H15.8425C16.6601 29.3971 17.3229 28.7379 17.3229 27.9249V2.08304C17.3229 1.26997 16.6601 0.61084 15.8425 0.61084Z" fill="currentColor"/>
<path d="M15.8425 32.7173H12.1103C11.2927 32.7173 10.6299 33.3764 10.6299 34.1895V37.9013C10.6299 38.7144 11.2927 39.3735 12.1103 39.3735H15.8425C16.6601 39.3735 17.3229 38.7144 17.3229 37.9013V34.1895C17.3229 33.3764 16.6601 32.7173 15.8425 32.7173Z" fill="currentColor"/>
<path d="M29.8898 0.61084H26.1575C25.3399 0.61084 24.6772 1.26997 24.6772 2.08304V27.9249C24.6772 28.7379 25.3399 29.3971 26.1575 29.3971H29.8898C30.7073 29.3971 31.3701 28.7379 31.3701 27.9249V2.08304C31.3701 1.26997 30.7073 0.61084 29.8898 0.61084Z" fill="currentColor"/>
<path d="M29.8898 32.7173H26.1575C25.3399 32.7173 24.6772 33.3764 24.6772 34.1895V37.9013C24.6772 38.7144 25.3399 39.3735 26.1575 39.3735H29.8898C30.7073 39.3735 31.3701 38.7144 31.3701 37.9013V34.1895C31.3701 33.3764 30.7073 32.7173 29.8898 32.7173Z" fill="currentColor"/>
</svg>
