<svg width="100" height="40" viewBox="0 0 100 40" fill="none" xmlns="http://www.w3.org/2000/svg">
<g clip-path="url(#clip0_197_68)">
<path d="M80.1308 39.9999C79.0664 39.9999 78.0685 39.5876 77.3145 38.8297C76.5606 38.0718 76.1503 37.0688 76.1503 35.9988C76.1503 34.9289 76.5606 33.9258 77.3145 33.168L90.3869 20.0278L77.3145 6.88765C76.5606 6.12978 76.1503 5.12671 76.1503 4.05678C76.1503 2.98684 76.5606 1.98378 77.3145 1.22591C78.8668 -0.334417 81.3948 -0.334417 82.9471 1.22591L98.8358 17.1969C99.5897 17.9548 100 18.9579 100 20.0278C100 21.0977 99.5897 22.1008 98.8358 22.8587L82.9471 38.8297C82.1931 39.5876 81.1952 39.9999 80.1308 39.9999ZM80.1308 1.51568C79.4766 1.51568 78.8336 1.76087 78.3346 2.26241C77.8578 2.74165 77.5917 3.38807 77.5917 4.06792C77.5917 4.74778 77.8578 5.3942 78.3346 5.87344L92.4271 20.0389L78.3346 34.2045C77.8578 34.6837 77.5917 35.3301 77.5917 36.01C77.5917 36.6898 77.8578 37.3362 78.3346 37.8155C78.8114 38.2947 79.4545 38.5622 80.1308 38.5622C80.8072 38.5622 81.4503 38.2947 81.927 37.8155L97.8157 21.8445C98.2925 21.3652 98.5586 20.7188 98.5586 20.0389C98.5586 19.3591 98.2925 18.7127 97.8157 18.2334L81.927 2.26241C81.4281 1.76087 80.785 1.51568 80.1308 1.51568Z" fill="#EEF4ED"/>
<path d="M19.8692 39.9443C18.8047 39.9443 17.8069 39.5319 17.0529 38.774L1.16421 22.803C0.410245 22.0451 0 21.0421 0 19.9721C0 18.9022 0.410245 17.8991 1.16421 17.1413L17.0529 1.17024C18.6052 -0.390081 21.1332 -0.390081 22.6854 1.17024C24.2377 2.73057 24.2377 5.27166 22.6854 6.83199L9.61304 19.9721L22.6854 33.1123C24.2377 34.6726 24.2377 37.2137 22.6854 38.774C21.9315 39.5319 20.9336 39.9443 19.8692 39.9443ZM19.8692 1.46002C19.215 1.46002 18.5719 1.70521 18.073 2.20674L2.19537 18.1666C1.71859 18.6459 1.45249 19.2923 1.45249 19.9721C1.45249 20.652 1.71859 21.2984 2.19537 21.7777L18.084 37.7487C18.5608 38.2279 19.2039 38.4954 19.8803 38.4954C20.5566 38.4954 21.1997 38.2279 21.6765 37.7487C22.6633 36.7568 22.6633 35.1407 21.6765 34.1488L7.58399 19.9833L21.6765 5.81778C22.6633 4.82586 22.6633 3.20981 21.6765 2.20674C21.1775 1.70521 20.5344 1.46002 19.8803 1.46002H19.8692Z" fill="#EEF4ED"/>
<path d="M28.7393 37.3921V2.44086C28.7393 1.71643 29.327 1.12573 30.0477 1.12573H38.2526C46.1359 1.12573 49.3957 5.98502 49.3957 12.2709C49.3957 18.5568 46.1359 23.4161 38.2526 23.4161H35.7024C34.9817 23.4161 34.394 24.0068 34.394 24.7312V37.4033C34.394 38.1277 33.8064 38.7184 33.0857 38.7184H30.0477C29.327 38.7184 28.7393 38.1277 28.7393 37.4033V37.3921ZM34.394 16.6398C34.394 17.3642 34.9817 17.9549 35.7024 17.9549H38.2526C43.1422 17.9549 43.6855 13.8535 43.6855 12.2709C43.6855 10.6883 43.1422 6.58686 38.2526 6.58686H35.7024C34.9817 6.58686 34.394 7.17756 34.394 7.90199V16.6398Z" fill="#EEF4ED"/>
<path d="M53.5536 2.51874C53.5536 1.79431 54.1412 1.20361 54.8619 1.20361H62.7453C70.4069 1.20361 73.6112 6.17436 73.6112 11.8027V28.2418C73.6112 34.9623 69.3203 38.7851 62.7453 38.7851H54.8619C54.1412 38.7851 53.5536 38.1944 53.5536 37.47V2.51874ZM59.0974 32.02C59.0974 32.7444 59.6851 33.3351 60.4058 33.3351H62.8562C67.4243 33.3351 68.023 29.6238 68.023 28.0858V11.9698C68.023 10.3872 67.4243 6.72047 62.8562 6.72047H60.4058C59.6851 6.72047 59.0974 7.31116 59.0974 8.0356V32.02Z" fill="#EEF4ED"/>
</g>
<defs>
<clipPath id="clip0_197_68">
<rect width="100" height="40" fill="white"/>
</clipPath>
</defs>
</svg>
