<svg width="42" height="40" viewBox="0 0 42 40" fill="none" xmlns="http://www.w3.org/2000/svg">
<path d="M40.4882 14.3775V10.6657C40.4882 9.85125 39.8268 9.19345 39.0079 9.19345H33.1181C32.4252 9.19345 31.8583 8.62963 31.8583 7.94052V2.08304C31.8583 1.26863 31.1969 0.61084 30.378 0.61084H26.6457C25.8268 0.61084 25.1654 1.26863 25.1654 2.08304V7.94052C25.1654 8.62963 24.5984 9.19345 23.9055 9.19345H18.0787C17.3858 9.19345 16.8189 8.62963 16.8189 7.94052V2.08304C16.8189 1.26863 16.1575 0.61084 15.3386 0.61084H11.6063C10.7874 0.61084 10.126 1.26863 10.126 2.08304V7.94052C10.126 8.62963 9.55905 9.19345 8.86614 9.19345H2.99213C2.17323 9.19345 1.51181 9.85125 1.51181 10.6657V14.3775C1.51181 15.1919 2.17323 15.8497 2.99213 15.8497H8.88189C9.5748 15.8497 10.1417 16.4135 10.1417 17.1026V22.8974C10.1417 23.5866 9.5748 24.1504 8.88189 24.1504H2.99213C2.17323 24.1504 1.51181 24.8082 1.51181 25.6226V29.3344C1.51181 30.1488 2.17323 30.8066 2.99213 30.8066H8.88189C9.5748 30.8066 10.1417 31.3704 10.1417 32.0595V37.917C10.1417 38.7314 10.8031 39.3892 11.622 39.3892H15.3543C16.1732 39.3892 16.8346 38.7314 16.8346 37.917V32.0595C16.8346 31.3704 17.4016 30.8066 18.0945 30.8066H23.9213C24.6142 30.8066 25.1811 31.3704 25.1811 32.0595V37.917C25.1811 38.7314 25.8425 39.3892 26.6614 39.3892H30.3937C31.2126 39.3892 31.874 38.7314 31.874 37.917V32.0595C31.874 31.3704 32.4409 30.8066 33.1339 30.8066H39.0236C39.8425 30.8066 40.5039 30.1488 40.5039 29.3344V25.6226C40.5039 24.8082 39.8425 24.1504 39.0236 24.1504H33.1339C32.4409 24.1504 31.874 23.5866 31.874 22.8974V17.1026C31.874 16.4135 32.4409 15.8497 33.1339 15.8497H39.0236C39.8425 15.8497 40.5039 15.1919 40.5039 14.3775H40.4882ZM23.9055 24.1504H18.0787C17.3858 24.1504 16.8189 23.5866 16.8189 22.8974V17.1026C16.8189 16.4135 17.3858 15.8497 18.0787 15.8497H23.9055C24.5984 15.8497 25.1654 16.4135 25.1654 17.1026V22.8974C25.1654 23.5866 24.5984 24.1504 23.9055 24.1504Z" fill="#EEF4ED"/>
</svg>
