<?xml version="1.0" encoding="UTF-8"?>
<svg id="Layer_2" data-name="Layer 2" xmlns="http://www.w3.org/2000/svg" viewBox="0 0 252.16 92.7">
  <defs>
    <style>
      .cls-1 {
        fill: #eef4ed;
      }

      .cls-2 {
        fill: #9bdb95;
      }
    </style>
  </defs>
  <path class="cls-2" d="M205.81,92.7c-2.02,0-4.04-.77-5.58-2.31-3.08-3.08-3.08-8.08,0-11.16l32.88-32.88-32.88-32.88c-3.08-3.08-3.08-8.08,0-11.16,3.08-3.08,8.08-3.08,11.16,0l38.46,38.46c3.08,3.08,3.08,8.08,0,11.16l-38.46,38.46c-1.54,1.54-3.56,2.31-5.58,2.31Z"/>
  <path class="cls-2" d="M46.35,92.7c-2.02,0-4.04-.77-5.58-2.31L2.31,51.93c-1.48-1.48-2.31-3.49-2.31-5.58s.83-4.1,2.31-5.58L40.77,2.31c3.08-3.08,8.08-3.08,11.16,0,3.08,3.08,3.08,8.08,0,11.16L19.06,46.35l32.88,32.88c3.08,3.08,3.08,8.08,0,11.16-1.54,1.54-3.56,2.31-5.58,2.31Z"/>
  <path class="cls-1" d="M65.84,81.07V11.58c0-1.25,1.02-2.27,2.27-2.27h34.58c13.96,0,25.3,10.25,25.3,24.75s-11.34,25.08-25.3,25.08h-16.7c-1.25,0-2.27,1.02-2.27,2.27v19.66c0,1.25-1.02,2.27-2.27,2.27h-13.34c-1.25,0-2.27-1.02-2.27-2.27ZM83.73,41.6c0,1.25,1.02,2.27,2.27,2.27h12.83c6.76,0,10.8-4.85,10.8-9.81,0-5.23-3.98-9.49-10.8-9.49h-12.83c-1.25,0-2.27,1.02-2.27,2.27v14.76Z"/>
  <path class="cls-1" d="M134.6,81.07V11.58c0-1.25,1.02-2.27,2.27-2.27h30.11c20.94,0,37.73,16.47,37.73,36.97s-16.79,37.07-37.73,37.07h-30.11c-1.25,0-2.27-1.02-2.27-2.27ZM165.24,68.3c12.43,0,20.94-10.03,20.94-22.03s-8.51-21.86-20.94-21.86h-10.43c-1.25,0-2.27,1.02-2.27,2.27v39.35c0,1.25,1.02,2.27,2.27,2.27h10.43Z"/>
</svg>