<svg width="400" height="400" viewBox="0 0 400 400" fill="none" xmlns="http://www.w3.org/2000/svg">
<path d="M160.641 249.02C139.721 235.9 125.811 212.63 125.811 186.11C125.811 145.12 159.041 111.9 200.021 111.9C241.001 111.9 274.231 145.13 274.231 186.11C274.231 212.63 260.321 235.89 239.411 249.02" stroke="currentColor" stroke-width="15" stroke-linecap="round" stroke-linejoin="round"/>
<path d="M239.411 272.26V277.81C239.411 295.69 227.581 311.4 210.391 316.34C203.611 318.29 196.431 318.29 189.651 316.34C172.471 311.4 160.631 295.69 160.631 277.81V272.26H239.401H239.411Z" stroke="currentColor" stroke-width="15" stroke-linecap="round" stroke-linejoin="round"/>
<path d="M219.439 314.01V322.64C219.439 333.36 210.749 342.05 200.029 342.05C189.309 342.05 180.619 333.36 180.619 322.64V314.01" stroke="currentColor" stroke-width="15" stroke-linecap="round" stroke-linejoin="round"/>
<path d="M200.031 86.3402V64.7202" stroke="currentColor" stroke-width="15" stroke-linecap="round" stroke-linejoin="round"/>
<path d="M150.691 99.5703L139.871 80.8403" stroke="currentColor" stroke-width="15" stroke-linecap="round" stroke-linejoin="round"/>
<path d="M114.57 135.69L95.8398 124.87" stroke="currentColor" stroke-width="15" stroke-linecap="round" stroke-linejoin="round"/>
<path d="M101.341 185.03H79.7207" stroke="currentColor" stroke-width="15" stroke-linecap="round" stroke-linejoin="round"/>
<path d="M114.57 234.37L95.8398 245.19" stroke="currentColor" stroke-width="15" stroke-linecap="round" stroke-linejoin="round"/>
<path d="M285.49 234.37L304.22 245.19" stroke="currentColor" stroke-width="15" stroke-linecap="round" stroke-linejoin="round"/>
<path d="M298.721 185.03H320.341" stroke="currentColor" stroke-width="15" stroke-linecap="round" stroke-linejoin="round"/>
<path d="M285.49 135.69L304.22 124.87" stroke="currentColor" stroke-width="15" stroke-linecap="round" stroke-linejoin="round"/>
<path d="M249.371 99.5703L260.191 80.8403" stroke="currentColor" stroke-width="15" stroke-linecap="round" stroke-linejoin="round"/>
<path d="M200.029 265.26V206.5M200.029 206.5L223.529 183M200.029 206.5L176.529 183" stroke="currentColor" stroke-width="15" stroke-linecap="round" stroke-linejoin="round"/>
</svg>
