<svg width="235" height="235" viewBox="0 0 235 235" fill="none" xmlns="http://www.w3.org/2000/svg">
<path d="M51.6016 183.399C51.6016 165.247 66.3168 150.531 84.4687 150.531H117.336V183.399C117.336 201.55 102.621 216.266 84.4687 216.266C66.3168 216.266 51.6016 201.55 51.6016 183.399Z" fill="#24CB71"/>
<path d="M117.336 19.063V84.7973H150.203C168.355 84.7973 183.07 70.082 183.07 51.9301C183.07 33.7783 168.355 19.063 150.203 19.063H117.336Z" fill="#FF7237"/>
<path d="M149.93 150.531C168.082 150.531 182.797 135.816 182.797 117.664C182.797 99.5122 168.082 84.7971 149.93 84.7971C131.778 84.7971 117.062 99.5122 117.062 117.664C117.062 135.816 131.778 150.531 149.93 150.531Z" fill="#00B6FF"/>
<path d="M51.6016 51.9301C51.6016 70.082 66.3168 84.7973 84.4687 84.7973H117.336V19.063H84.4687C66.3168 19.063 51.6016 33.7783 51.6016 51.9301Z" fill="#FF3737"/>
<path d="M51.6016 117.664C51.6016 135.816 66.3168 150.531 84.4687 150.531H117.336V84.7971H84.4687C66.3168 84.7971 51.6016 99.5124 51.6016 117.664Z" fill="#874FFF"/>
</svg>
