<svg width="235" height="237" viewBox="0 0 235 237" fill="none" xmlns="http://www.w3.org/2000/svg">
<path d="M36 40.387V72.7159C36 75.1418 37.9542 77.1029 40.3716 77.1029H55.3319C57.7493 77.1029 59.7034 75.1418 59.7034 72.7159V59.7873H105.648V179.043L79.7084 182.224C77.5154 182.493 75.8652 184.36 75.8652 186.582V201H159.128V186.582C159.128 184.367 157.477 182.493 155.284 182.224L129.344 179.043V59.78H175.297V72.7086C175.297 75.1346 177.251 77.0957 179.668 77.0957H194.628C197.046 77.0957 199 75.1346 199 72.7086V40.387C199 37.9611 197.046 36 194.628 36H40.3716C37.9542 36 36 37.9611 36 40.387Z" fill="#6a2f9aff" stroke="#6a2f9aff" stroke-width="9.43" stroke-linecap="round" stroke-linejoin="round"/>
</svg>
